<?xml version="1.0" encoding="UTF-8"?>
<svg xmlns="http://www.w3.org/2000/svg" xmlns:xlink="http://www.w3.org/1999/xlink" width="540pt" height="244pt" viewBox="0 0 540 244">
<defs>
<g>
<g id="glyph-0-0">
<path d="M 3.890625 -7.109375 L 6.515625 -7.109375 L 6.515625 -8.015625 L 0.234375 -8.015625 L 0.234375 -7.109375 L 2.875 -7.109375 L 2.875 0 L 3.890625 0 Z M 3.890625 -7.109375 "/>
</g>
<g id="glyph-0-1">
<path d="M 1.65625 -5.765625 L 0.734375 -5.765625 L 0.734375 0 L 1.65625 0 Z M 1.65625 -8.015625 L 0.71875 -8.015625 L 0.71875 -6.859375 L 1.65625 -6.859375 Z M 1.65625 -8.015625 "/>
</g>
<g id="glyph-0-2">
<path d="M 0.765625 -5.765625 L 0.765625 0 L 1.6875 0 L 1.6875 -3.625 C 1.6875 -4.453125 2.296875 -5.125 3.046875 -5.125 C 3.734375 -5.125 4.109375 -4.703125 4.109375 -3.96875 L 4.109375 0 L 5.03125 0 L 5.03125 -3.625 C 5.03125 -4.453125 5.640625 -5.125 6.390625 -5.125 C 7.0625 -5.125 7.453125 -4.703125 7.453125 -3.96875 L 7.453125 0 L 8.375 0 L 8.375 -4.328125 C 8.375 -5.359375 7.78125 -5.921875 6.703125 -5.921875 C 5.9375 -5.921875 5.484375 -5.703125 4.9375 -5.046875 C 4.59375 -5.671875 4.140625 -5.921875 3.390625 -5.921875 C 2.625 -5.921875 2.09375 -5.640625 1.609375 -4.953125 L 1.609375 -5.765625 Z M 0.765625 -5.765625 "/>
</g>
<g id="glyph-0-3">
<path d="M 5.640625 -2.578125 C 5.640625 -3.453125 5.578125 -3.984375 5.40625 -4.40625 C 5.03125 -5.359375 4.15625 -5.921875 3.078125 -5.921875 C 1.46875 -5.921875 0.4375 -4.703125 0.4375 -2.8125 C 0.4375 -0.90625 1.4375 0.25 3.0625 0.25 C 4.375 0.25 5.296875 -0.5 5.515625 -1.75 L 4.59375 -1.75 C 4.34375 -0.984375 3.828125 -0.59375 3.09375 -0.59375 C 2.515625 -0.59375 2.015625 -0.859375 1.703125 -1.34375 C 1.484375 -1.671875 1.40625 -2 1.390625 -2.578125 Z M 1.421875 -3.328125 C 1.5 -4.390625 2.140625 -5.078125 3.0625 -5.078125 C 4 -5.078125 4.65625 -4.359375 4.65625 -3.328125 Z M 1.421875 -3.328125 "/>
</g>
<g id="glyph-0-4">
<path d="M 2.84375 -5.671875 L 2.84375 0 L 3.8125 0 L 3.8125 -7.953125 L 3.171875 -7.953125 C 2.84375 -6.734375 2.625 -6.5625 1.125 -6.375 L 1.125 -5.671875 Z M 2.84375 -5.671875 "/>
</g>
<g id="glyph-0-5">
<path d="M 0.578125 -1.8125 C 0.765625 -0.515625 1.609375 0.25 2.796875 0.25 C 3.65625 0.25 4.4375 -0.171875 4.890625 -0.875 C 5.375 -1.65625 5.59375 -2.625 5.59375 -4.0625 C 5.59375 -5.40625 5.40625 -6.265625 4.9375 -6.96875 C 4.515625 -7.609375 3.828125 -7.953125 2.96875 -7.953125 C 1.484375 -7.953125 0.421875 -6.84375 0.421875 -5.296875 C 0.421875 -3.84375 1.40625 -2.8125 2.8125 -2.8125 C 3.546875 -2.8125 4.109375 -3.0625 4.59375 -3.671875 C 4.59375 -1.6875 3.96875 -0.609375 2.859375 -0.609375 C 2.171875 -0.609375 1.703125 -1.046875 1.546875 -1.8125 Z M 2.953125 -7.109375 C 3.859375 -7.109375 4.546875 -6.34375 4.546875 -5.328125 C 4.546875 -4.34375 3.890625 -3.65625 2.921875 -3.65625 C 1.984375 -3.65625 1.40625 -4.328125 1.40625 -5.375 C 1.40625 -6.375 2.0625 -7.109375 2.953125 -7.109375 Z M 2.953125 -7.109375 "/>
</g>
<g id="glyph-0-6">
<path d="M 3.03125 -7.953125 C 2.296875 -7.953125 1.640625 -7.625 1.234375 -7.078125 C 0.71875 -6.375 0.46875 -5.328125 0.46875 -3.84375 C 0.46875 -1.171875 1.359375 0.25 3.03125 0.25 C 4.671875 0.25 5.578125 -1.171875 5.578125 -3.78125 C 5.578125 -5.328125 5.328125 -6.359375 4.8125 -7.078125 C 4.40625 -7.640625 3.765625 -7.953125 3.03125 -7.953125 Z M 3.03125 -7.09375 C 4.0625 -7.09375 4.59375 -6.03125 4.59375 -3.875 C 4.59375 -1.609375 4.078125 -0.546875 3 -0.546875 C 1.984375 -0.546875 1.46875 -1.65625 1.46875 -3.84375 C 1.46875 -6.03125 1.984375 -7.09375 3.03125 -7.09375 Z M 3.03125 -7.09375 "/>
</g>
<g id="glyph-0-7">
<path d="M 5.5625 -0.953125 L 1.46875 -0.953125 C 1.5625 -1.609375 1.90625 -2.03125 2.875 -2.625 L 3.96875 -3.234375 C 5.0625 -3.84375 5.625 -4.65625 5.625 -5.625 C 5.625 -6.296875 5.359375 -6.90625 4.890625 -7.34375 C 4.4375 -7.75 3.859375 -7.953125 3.125 -7.953125 C 2.140625 -7.953125 1.390625 -7.59375 0.96875 -6.921875 C 0.6875 -6.5 0.578125 -6 0.546875 -5.203125 L 1.515625 -5.203125 C 1.546875 -5.734375 1.609375 -6.0625 1.75 -6.328125 C 2 -6.8125 2.515625 -7.109375 3.09375 -7.109375 C 3.96875 -7.109375 4.625 -6.46875 4.625 -5.609375 C 4.625 -4.96875 4.265625 -4.421875 3.578125 -4.03125 L 2.5625 -3.4375 C 0.9375 -2.5 0.46875 -1.75 0.375 -0.015625 L 5.5625 -0.015625 Z M 5.5625 -0.953125 "/>
</g>
<g id="glyph-0-8">
<path d="M 2.4375 -3.65625 L 2.953125 -3.65625 C 4.015625 -3.65625 4.578125 -3.171875 4.578125 -2.21875 C 4.578125 -1.203125 3.96875 -0.609375 2.96875 -0.609375 C 1.90625 -0.609375 1.390625 -1.140625 1.3125 -2.3125 L 0.359375 -2.3125 C 0.390625 -1.671875 0.5 -1.25 0.6875 -0.90625 C 1.09375 -0.125 1.859375 0.25 2.921875 0.25 C 4.53125 0.25 5.5625 -0.71875 5.5625 -2.21875 C 5.5625 -3.234375 5.1875 -3.78125 4.25 -4.109375 C 4.96875 -4.40625 5.328125 -4.96875 5.328125 -5.765625 C 5.328125 -7.125 4.4375 -7.953125 2.953125 -7.953125 C 1.390625 -7.953125 0.546875 -7.078125 0.515625 -5.390625 L 1.484375 -5.390625 C 1.5 -5.875 1.546875 -6.15625 1.65625 -6.390625 C 1.875 -6.84375 2.359375 -7.109375 2.96875 -7.109375 C 3.828125 -7.109375 4.34375 -6.59375 4.34375 -5.734375 C 4.34375 -5.171875 4.140625 -4.828125 3.71875 -4.640625 C 3.453125 -4.53125 3.109375 -4.484375 2.4375 -4.484375 Z M 2.4375 -3.65625 "/>
</g>
<g id="glyph-0-9">
<path d="M 3.59375 -1.921875 L 3.59375 0 L 4.5625 0 L 4.5625 -1.921875 L 5.71875 -1.921875 L 5.71875 -2.796875 L 4.5625 -2.796875 L 4.5625 -7.953125 L 3.84375 -7.953125 L 0.3125 -2.953125 L 0.3125 -1.921875 Z M 3.59375 -2.796875 L 1.15625 -2.796875 L 3.59375 -6.296875 Z M 3.59375 -2.796875 "/>
</g>
<g id="glyph-0-10">
<path d="M 5.234375 -7.796875 L 1.203125 -7.796875 L 0.625 -3.546875 L 1.515625 -3.546875 C 1.96875 -4.09375 2.34375 -4.28125 2.953125 -4.28125 C 4 -4.28125 4.65625 -3.5625 4.65625 -2.40625 C 4.65625 -1.28125 4 -0.609375 2.953125 -0.609375 C 2.09375 -0.609375 1.578125 -1.03125 1.359375 -1.90625 L 0.390625 -1.90625 C 0.515625 -1.28125 0.625 -0.96875 0.859375 -0.6875 C 1.296875 -0.09375 2.09375 0.25 2.96875 0.25 C 4.546875 0.25 5.640625 -0.890625 5.640625 -2.546875 C 5.640625 -4.078125 4.625 -5.140625 3.125 -5.140625 C 2.578125 -5.140625 2.140625 -5 1.6875 -4.65625 L 1.984375 -6.84375 L 5.234375 -6.84375 Z M 5.234375 -7.796875 "/>
</g>
<g id="glyph-0-11">
<path d="M 5.484375 -5.890625 C 5.296875 -7.1875 4.453125 -7.953125 3.265625 -7.953125 C 2.40625 -7.953125 1.640625 -7.53125 1.171875 -6.8125 C 0.6875 -6.03125 0.46875 -5.078125 0.46875 -3.625 C 0.46875 -2.28125 0.65625 -1.4375 1.140625 -0.734375 C 1.546875 -0.09375 2.234375 0.25 3.09375 0.25 C 4.578125 0.25 5.640625 -0.859375 5.640625 -2.40625 C 5.640625 -3.875 4.65625 -4.90625 3.25 -4.90625 C 2.484375 -4.90625 1.875 -4.625 1.46875 -4.03125 C 1.46875 -6 2.09375 -7.09375 3.203125 -7.09375 C 3.890625 -7.09375 4.359375 -6.65625 4.515625 -5.890625 Z M 3.140625 -4.046875 C 4.0625 -4.046875 4.65625 -3.390625 4.65625 -2.328125 C 4.65625 -1.328125 4 -0.609375 3.109375 -0.609375 C 2.203125 -0.609375 1.515625 -1.359375 1.515625 -2.375 C 1.515625 -3.359375 2.171875 -4.046875 3.140625 -4.046875 Z M 3.140625 -4.046875 "/>
</g>
<g id="glyph-0-12">
<path d="M 5.71875 -7.796875 L 0.5 -7.796875 L 0.5 -6.84375 L 4.71875 -6.84375 C 2.859375 -4.1875 2.09375 -2.5625 1.515625 0 L 2.546875 0 C 2.984375 -2.5 3.953125 -4.640625 5.71875 -6.984375 Z M 5.71875 -7.796875 "/>
</g>
<g id="glyph-1-0">
<path d="M -5.765625 -0.765625 L 0 -0.765625 L 0 -1.6875 L -3.171875 -1.6875 C -4.359375 -1.6875 -5.125 -2.3125 -5.125 -3.25 C -5.125 -3.984375 -4.6875 -4.4375 -4 -4.4375 L 0 -4.4375 L 0 -5.359375 L -4.359375 -5.359375 C -5.3125 -5.359375 -5.921875 -4.640625 -5.921875 -3.53125 C -5.921875 -2.671875 -5.59375 -2.125 -4.796875 -1.609375 L -5.765625 -1.609375 Z M -5.765625 -0.765625 "/>
</g>
<g id="glyph-1-1">
<path d="M -8.015625 -0.765625 L 0 -0.765625 L 0 -1.6875 L -3.171875 -1.6875 C -4.359375 -1.6875 -5.125 -2.296875 -5.125 -3.25 C -5.125 -3.546875 -5.03125 -3.84375 -4.875 -4.0625 C -4.671875 -4.328125 -4.40625 -4.4375 -4 -4.4375 L 0 -4.4375 L 0 -5.34375 L -4.359375 -5.34375 C -5.328125 -5.34375 -5.921875 -4.65625 -5.921875 -3.53125 C -5.921875 -2.71875 -5.671875 -2.21875 -4.96875 -1.6875 L -8.015625 -1.6875 Z M -8.015625 -0.765625 "/>
</g>
<g id="glyph-1-2">
<path d="M -5.765625 -2.796875 L -5.765625 -1.84375 L -7.34375 -1.84375 L -7.34375 -0.9375 L -5.765625 -0.9375 L -5.765625 -0.15625 L -5.015625 -0.15625 L -5.015625 -0.9375 L -0.65625 -0.9375 C -0.0625 -0.9375 0.25 -1.328125 0.25 -2.046875 C 0.25 -2.28125 0.234375 -2.484375 0.171875 -2.796875 L -0.59375 -2.796875 C -0.5625 -2.65625 -0.546875 -2.546875 -0.546875 -2.359375 C -0.546875 -1.953125 -0.65625 -1.84375 -1.0625 -1.84375 L -5.015625 -1.84375 L -5.015625 -2.796875 Z M -5.765625 -2.796875 "/>
</g>
<g id="glyph-1-3">
<path d="M -2.578125 -5.640625 C -3.453125 -5.640625 -3.984375 -5.578125 -4.40625 -5.40625 C -5.359375 -5.03125 -5.921875 -4.15625 -5.921875 -3.078125 C -5.921875 -1.46875 -4.703125 -0.4375 -2.8125 -0.4375 C -0.90625 -0.4375 0.25 -1.4375 0.25 -3.0625 C 0.25 -4.375 -0.5 -5.296875 -1.75 -5.515625 L -1.75 -4.59375 C -0.984375 -4.34375 -0.59375 -3.828125 -0.59375 -3.09375 C -0.59375 -2.515625 -0.859375 -2.015625 -1.34375 -1.703125 C -1.671875 -1.484375 -2 -1.40625 -2.578125 -1.390625 Z M -3.328125 -1.421875 C -4.390625 -1.5 -5.078125 -2.140625 -5.078125 -3.0625 C -5.078125 -4 -4.359375 -4.65625 -3.328125 -4.65625 Z M -3.328125 -1.421875 "/>
</g>
<g id="glyph-1-4">
<path d="M -5.765625 -0.765625 L 0 -0.765625 L 0 -1.6875 L -3.625 -1.6875 C -4.453125 -1.6875 -5.125 -2.296875 -5.125 -3.046875 C -5.125 -3.734375 -4.703125 -4.109375 -3.96875 -4.109375 L 0 -4.109375 L 0 -5.03125 L -3.625 -5.03125 C -4.453125 -5.03125 -5.125 -5.640625 -5.125 -6.390625 C -5.125 -7.0625 -4.703125 -7.453125 -3.96875 -7.453125 L 0 -7.453125 L 0 -8.375 L -4.328125 -8.375 C -5.359375 -8.375 -5.921875 -7.78125 -5.921875 -6.703125 C -5.921875 -5.9375 -5.703125 -5.484375 -5.046875 -4.9375 C -5.671875 -4.59375 -5.921875 -4.140625 -5.921875 -3.390625 C -5.921875 -2.625 -5.640625 -2.09375 -4.953125 -1.609375 L -5.765625 -1.609375 Z M -5.765625 -0.765625 "/>
</g>
<g id="glyph-1-5">
<path d="M 2.390625 -0.59375 L 2.390625 -1.515625 L -0.609375 -1.515625 C -0.015625 -2 0.25 -2.546875 0.25 -3.28125 C 0.25 -4.78125 -0.953125 -5.75 -2.78125 -5.75 C -4.71875 -5.75 -5.921875 -4.8125 -5.921875 -3.28125 C -5.921875 -2.5 -5.578125 -1.875 -4.890625 -1.4375 L -5.765625 -1.4375 L -5.765625 -0.59375 Z M -5.078125 -3.125 C -5.078125 -4.140625 -4.1875 -4.796875 -2.8125 -4.796875 C -1.5 -4.796875 -0.609375 -4.125 -0.609375 -3.125 C -0.609375 -2.140625 -1.484375 -1.515625 -2.84375 -1.515625 C -4.1875 -1.515625 -5.078125 -2.140625 -5.078125 -3.125 Z M -5.078125 -3.125 "/>
</g>
<g id="glyph-1-6">
<path d="M -1.921875 -3.59375 L 0 -3.59375 L 0 -4.5625 L -1.921875 -4.5625 L -1.921875 -5.71875 L -2.796875 -5.71875 L -2.796875 -4.5625 L -7.953125 -4.5625 L -7.953125 -3.84375 L -2.953125 -0.3125 L -1.921875 -0.3125 Z M -2.796875 -3.59375 L -2.796875 -1.15625 L -6.296875 -3.59375 Z M -2.796875 -3.59375 "/>
</g>
<g id="glyph-1-7">
<path d="M -4.1875 -4.296875 C -4.6875 -5.109375 -5.078125 -5.375 -5.828125 -5.375 C -7.078125 -5.375 -7.953125 -4.40625 -7.953125 -3.03125 C -7.953125 -1.65625 -7.078125 -0.6875 -5.84375 -0.6875 C -5.078125 -0.6875 -4.703125 -0.9375 -4.1875 -1.734375 C -3.734375 -0.84375 -3.09375 -0.40625 -2.21875 -0.40625 C -0.765625 -0.40625 0.25 -1.46875 0.25 -3.03125 C 0.25 -4.5625 -0.765625 -5.640625 -2.21875 -5.640625 C -3.09375 -5.640625 -3.734375 -5.203125 -4.1875 -4.296875 Z M -7.09375 -3.03125 C -7.09375 -3.84375 -6.59375 -4.375 -5.8125 -4.375 C -5.0625 -4.375 -4.5625 -3.84375 -4.5625 -3.03125 C -4.5625 -2.203125 -5.0625 -1.671875 -5.828125 -1.671875 C -6.59375 -1.671875 -7.09375 -2.203125 -7.09375 -3.03125 Z M -3.75 -3.03125 C -3.75 -4 -3.109375 -4.65625 -2.1875 -4.65625 C -1.234375 -4.65625 -0.609375 -4 -0.609375 -3 C -0.609375 -2.0625 -1.25 -1.390625 -2.171875 -1.390625 C -3.125 -1.390625 -3.75 -2.046875 -3.75 -3.03125 Z M -3.75 -3.03125 "/>
</g>
<g id="glyph-1-8">
<path d="M -7.796875 -5.234375 L -7.796875 -1.203125 L -3.546875 -0.625 L -3.546875 -1.515625 C -4.09375 -1.96875 -4.28125 -2.34375 -4.28125 -2.953125 C -4.28125 -4 -3.5625 -4.65625 -2.40625 -4.65625 C -1.28125 -4.65625 -0.609375 -4 -0.609375 -2.953125 C -0.609375 -2.09375 -1.03125 -1.578125 -1.90625 -1.359375 L -1.90625 -0.390625 C -1.28125 -0.515625 -0.96875 -0.625 -0.6875 -0.859375 C -0.09375 -1.296875 0.25 -2.09375 0.25 -2.96875 C 0.25 -4.546875 -0.890625 -5.640625 -2.546875 -5.640625 C -4.078125 -5.640625 -5.140625 -4.625 -5.140625 -3.125 C -5.140625 -2.578125 -5 -2.140625 -4.65625 -1.6875 L -6.84375 -1.984375 L -6.84375 -5.234375 Z M -7.796875 -5.234375 "/>
</g>
<g id="glyph-1-9">
<path d="M -7.953125 -3.03125 C -7.953125 -2.296875 -7.625 -1.640625 -7.078125 -1.234375 C -6.375 -0.71875 -5.328125 -0.46875 -3.84375 -0.46875 C -1.171875 -0.46875 0.25 -1.359375 0.25 -3.03125 C 0.25 -4.671875 -1.171875 -5.578125 -3.78125 -5.578125 C -5.328125 -5.578125 -6.359375 -5.328125 -7.078125 -4.8125 C -7.640625 -4.40625 -7.953125 -3.765625 -7.953125 -3.03125 Z M -7.09375 -3.03125 C -7.09375 -4.0625 -6.03125 -4.59375 -3.875 -4.59375 C -1.609375 -4.59375 -0.546875 -4.078125 -0.546875 -3 C -0.546875 -1.984375 -1.65625 -1.46875 -3.84375 -1.46875 C -6.03125 -1.46875 -7.09375 -1.984375 -7.09375 -3.03125 Z M -7.09375 -3.03125 "/>
</g>
<g id="glyph-1-10">
<path d="M -0.953125 -5.5625 L -0.953125 -1.46875 C -1.609375 -1.5625 -2.03125 -1.90625 -2.625 -2.875 L -3.234375 -3.96875 C -3.84375 -5.0625 -4.65625 -5.625 -5.625 -5.625 C -6.296875 -5.625 -6.90625 -5.359375 -7.34375 -4.890625 C -7.75 -4.4375 -7.953125 -3.859375 -7.953125 -3.125 C -7.953125 -2.140625 -7.59375 -1.390625 -6.921875 -0.96875 C -6.5 -0.6875 -6 -0.578125 -5.203125 -0.546875 L -5.203125 -1.515625 C -5.734375 -1.546875 -6.0625 -1.609375 -6.328125 -1.75 C -6.8125 -2 -7.109375 -2.515625 -7.109375 -3.09375 C -7.109375 -3.96875 -6.46875 -4.625 -5.609375 -4.625 C -4.96875 -4.625 -4.421875 -4.265625 -4.03125 -3.578125 L -3.4375 -2.5625 C -2.5 -0.9375 -1.75 -0.46875 -0.015625 -0.375 L -0.015625 -5.5625 Z M -0.953125 -5.5625 "/>
</g>
</g>
</defs>
<rect x="-54" y="-24.4" width="648" height="292.8" fill="rgb(100%, 100%, 100%)" fill-opacity="1"/>
<path fill="none" stroke-width="0.75" stroke-linecap="round" stroke-linejoin="round" stroke="rgb(0%, 0%, 0%)" stroke-opacity="1" stroke-miterlimit="10" d="M 71.089844 138.265625 L 78.277344 97.617188 L 85.46875 146.734375 L 92.660156 117.941406 L 99.851562 146.734375 L 107.039062 172.140625 L 114.230469 139.960938 L 121.421875 121.328125 L 128.609375 148.429688 L 135.800781 104.390625 L 142.992188 123.023438 L 150.179688 143.347656 L 157.371094 148.429688 L 164.5625 126.410156 L 171.75 163.671875 L 178.941406 124.714844 L 186.132812 121.328125 L 193.324219 126.410156 L 200.511719 111.164062 L 207.703125 89.148438 L 214.894531 106.085938 L 222.082031 117.941406 L 229.273438 139.960938 L 236.464844 133.183594 L 243.652344 129.796875 L 250.84375 109.472656 L 258.035156 106.085938 L 265.222656 121.328125 L 272.414062 156.898438 L 279.605469 107.777344 L 286.796875 119.632812 L 293.984375 126.410156 L 301.175781 107.777344 L 308.367188 111.164062 L 315.554688 101.003906 L 322.746094 114.554688 L 329.9375 119.632812 L 337.125 68.820312 L 344.316406 112.859375 L 351.507812 90.839844 L 358.695312 84.066406 L 365.886719 58.660156 L 373.078125 102.695312 L 380.269531 102.695312 L 387.457031 121.328125 L 394.648438 92.535156 L 401.839844 133.183594 L 409.027344 92.535156 L 416.21875 109.472656 L 423.410156 104.390625 L 430.597656 128.101562 L 437.789062 121.328125 L 444.980469 107.777344 L 452.167969 112.859375 L 459.359375 107.777344 L 466.550781 123.023438 L 473.742188 104.390625 L 480.929688 106.085938 L 488.121094 104.390625 L 495.3125 85.757812 "/>
<g fill="rgb(0%, 0%, 0%)" fill-opacity="1">
<use xlink:href="#glyph-0-0" x="271.199219" y="225.858398"/>
<use xlink:href="#glyph-0-1" x="278.199219" y="225.858398"/>
<use xlink:href="#glyph-0-2" x="280.199219" y="225.858398"/>
<use xlink:href="#glyph-0-3" x="289.199219" y="225.858398"/>
</g>
<g fill="rgb(0%, 0%, 0%)" fill-opacity="1">
<use xlink:href="#glyph-1-0" x="10.897461" y="133.398438"/>
<use xlink:href="#glyph-1-1" x="10.897461" y="127.398438"/>
<use xlink:href="#glyph-1-2" x="10.897461" y="121.398438"/>
<use xlink:href="#glyph-1-3" x="10.897461" y="118.398438"/>
<use xlink:href="#glyph-1-4" x="10.897461" y="112.398438"/>
<use xlink:href="#glyph-1-5" x="10.897461" y="103.398438"/>
</g>
<path fill="none" stroke-width="0.75" stroke-linecap="round" stroke-linejoin="round" stroke="rgb(0%, 0%, 0%)" stroke-opacity="1" stroke-miterlimit="10" d="M 56.707031 176.679688 L 488.121094 176.679688 "/>
<path fill="none" stroke-width="0.75" stroke-linecap="round" stroke-linejoin="round" stroke="rgb(0%, 0%, 0%)" stroke-opacity="1" stroke-miterlimit="10" d="M 56.707031 176.679688 L 56.707031 183.28125 "/>
<path fill="none" stroke-width="0.75" stroke-linecap="round" stroke-linejoin="round" stroke="rgb(0%, 0%, 0%)" stroke-opacity="1" stroke-miterlimit="10" d="M 128.609375 176.679688 L 128.609375 183.28125 "/>
<path fill="none" stroke-width="0.75" stroke-linecap="round" stroke-linejoin="round" stroke="rgb(0%, 0%, 0%)" stroke-opacity="1" stroke-miterlimit="10" d="M 200.511719 176.679688 L 200.511719 183.28125 "/>
<path fill="none" stroke-width="0.75" stroke-linecap="round" stroke-linejoin="round" stroke="rgb(0%, 0%, 0%)" stroke-opacity="1" stroke-miterlimit="10" d="M 272.414062 176.679688 L 272.414062 183.28125 "/>
<path fill="none" stroke-width="0.75" stroke-linecap="round" stroke-linejoin="round" stroke="rgb(0%, 0%, 0%)" stroke-opacity="1" stroke-miterlimit="10" d="M 344.316406 176.679688 L 344.316406 183.28125 "/>
<path fill="none" stroke-width="0.75" stroke-linecap="round" stroke-linejoin="round" stroke="rgb(0%, 0%, 0%)" stroke-opacity="1" stroke-miterlimit="10" d="M 416.21875 176.679688 L 416.21875 183.28125 "/>
<path fill="none" stroke-width="0.75" stroke-linecap="round" stroke-linejoin="round" stroke="rgb(0%, 0%, 0%)" stroke-opacity="1" stroke-miterlimit="10" d="M 488.121094 176.679688 L 488.121094 183.28125 "/>
<g fill="rgb(0%, 0%, 0%)" fill-opacity="1">
<use xlink:href="#glyph-0-4" x="44.707031" y="199.459961"/>
<use xlink:href="#glyph-0-5" x="50.707031" y="199.459961"/>
<use xlink:href="#glyph-0-4" x="56.707031" y="199.459961"/>
<use xlink:href="#glyph-0-6" x="62.707031" y="199.459961"/>
</g>
<g fill="rgb(0%, 0%, 0%)" fill-opacity="1">
<use xlink:href="#glyph-0-4" x="116.609375" y="199.459961"/>
<use xlink:href="#glyph-0-5" x="122.609375" y="199.459961"/>
<use xlink:href="#glyph-0-7" x="128.609375" y="199.459961"/>
<use xlink:href="#glyph-0-6" x="134.609375" y="199.459961"/>
</g>
<g fill="rgb(0%, 0%, 0%)" fill-opacity="1">
<use xlink:href="#glyph-0-4" x="188.511719" y="199.459961"/>
<use xlink:href="#glyph-0-5" x="194.511719" y="199.459961"/>
<use xlink:href="#glyph-0-8" x="200.511719" y="199.459961"/>
<use xlink:href="#glyph-0-6" x="206.511719" y="199.459961"/>
</g>
<g fill="rgb(0%, 0%, 0%)" fill-opacity="1">
<use xlink:href="#glyph-0-4" x="260.414062" y="199.459961"/>
<use xlink:href="#glyph-0-5" x="266.414062" y="199.459961"/>
<use xlink:href="#glyph-0-9" x="272.414062" y="199.459961"/>
<use xlink:href="#glyph-0-6" x="278.414062" y="199.459961"/>
</g>
<g fill="rgb(0%, 0%, 0%)" fill-opacity="1">
<use xlink:href="#glyph-0-4" x="332.316406" y="199.459961"/>
<use xlink:href="#glyph-0-5" x="338.316406" y="199.459961"/>
<use xlink:href="#glyph-0-10" x="344.316406" y="199.459961"/>
<use xlink:href="#glyph-0-6" x="350.316406" y="199.459961"/>
</g>
<g fill="rgb(0%, 0%, 0%)" fill-opacity="1">
<use xlink:href="#glyph-0-4" x="404.21875" y="199.459961"/>
<use xlink:href="#glyph-0-5" x="410.21875" y="199.459961"/>
<use xlink:href="#glyph-0-11" x="416.21875" y="199.459961"/>
<use xlink:href="#glyph-0-6" x="422.21875" y="199.459961"/>
</g>
<g fill="rgb(0%, 0%, 0%)" fill-opacity="1">
<use xlink:href="#glyph-0-4" x="476.121094" y="199.459961"/>
<use xlink:href="#glyph-0-5" x="482.121094" y="199.459961"/>
<use xlink:href="#glyph-0-12" x="488.121094" y="199.459961"/>
<use xlink:href="#glyph-0-6" x="494.121094" y="199.459961"/>
</g>
<path fill="none" stroke-width="0.75" stroke-linecap="round" stroke-linejoin="round" stroke="rgb(0%, 0%, 0%)" stroke-opacity="1" stroke-miterlimit="10" d="M 54.121094 170.445312 L 54.121094 68.820312 "/>
<path fill="none" stroke-width="0.75" stroke-linecap="round" stroke-linejoin="round" stroke="rgb(0%, 0%, 0%)" stroke-opacity="1" stroke-miterlimit="10" d="M 54.121094 170.445312 L 47.519531 170.445312 "/>
<path fill="none" stroke-width="0.75" stroke-linecap="round" stroke-linejoin="round" stroke="rgb(0%, 0%, 0%)" stroke-opacity="1" stroke-miterlimit="10" d="M 54.121094 153.507812 L 47.519531 153.507812 "/>
<path fill="none" stroke-width="0.75" stroke-linecap="round" stroke-linejoin="round" stroke="rgb(0%, 0%, 0%)" stroke-opacity="1" stroke-miterlimit="10" d="M 54.121094 136.570312 L 47.519531 136.570312 "/>
<path fill="none" stroke-width="0.75" stroke-linecap="round" stroke-linejoin="round" stroke="rgb(0%, 0%, 0%)" stroke-opacity="1" stroke-miterlimit="10" d="M 54.121094 119.632812 L 47.519531 119.632812 "/>
<path fill="none" stroke-width="0.75" stroke-linecap="round" stroke-linejoin="round" stroke="rgb(0%, 0%, 0%)" stroke-opacity="1" stroke-miterlimit="10" d="M 54.121094 102.695312 L 47.519531 102.695312 "/>
<path fill="none" stroke-width="0.75" stroke-linecap="round" stroke-linejoin="round" stroke="rgb(0%, 0%, 0%)" stroke-opacity="1" stroke-miterlimit="10" d="M 54.121094 85.757812 L 47.519531 85.757812 "/>
<path fill="none" stroke-width="0.75" stroke-linecap="round" stroke-linejoin="round" stroke="rgb(0%, 0%, 0%)" stroke-opacity="1" stroke-miterlimit="10" d="M 54.121094 68.820312 L 47.519531 68.820312 "/>
<g fill="rgb(0%, 0%, 0%)" fill-opacity="1">
<use xlink:href="#glyph-1-6" x="37.299805" y="176.445312"/>
<use xlink:href="#glyph-1-7" x="37.299805" y="170.445312"/>
</g>
<g fill="rgb(0%, 0%, 0%)" fill-opacity="1">
<use xlink:href="#glyph-1-8" x="37.299805" y="142.570312"/>
<use xlink:href="#glyph-1-9" x="37.299805" y="136.570312"/>
</g>
<g fill="rgb(0%, 0%, 0%)" fill-opacity="1">
<use xlink:href="#glyph-1-8" x="37.299805" y="108.695312"/>
<use xlink:href="#glyph-1-10" x="37.299805" y="102.695312"/>
</g>
<g fill="rgb(0%, 0%, 0%)" fill-opacity="1">
<use xlink:href="#glyph-1-8" x="37.299805" y="74.820312"/>
<use xlink:href="#glyph-1-6" x="37.299805" y="68.820312"/>
</g>
<path fill="none" stroke-width="0.75" stroke-linecap="round" stroke-linejoin="round" stroke="rgb(0%, 0%, 0%)" stroke-opacity="1" stroke-miterlimit="10" d="M 54.121094 176.679688 L 512.28125 176.679688 L 512.28125 54.121094 L 54.121094 54.121094 Z M 54.121094 176.679688 "/>
</svg>
